<svg width="32" height="32" viewBox="0 0 32 32" fill="none" xmlns="http://www.w3.org/2000/svg">
<g id="book-closed">
<path id="Icon" d="M26.6666 25.3332V21.3332H9.33325C7.12411 21.3332 5.33325 23.124 5.33325 25.3332M11.7333 29.3332H22.3999C23.8934 29.3332 24.6401 29.3332 25.2106 29.0425C25.7123 28.7869 26.1203 28.3789 26.3759 27.8771C26.6666 27.3067 26.6666 26.56 26.6666 25.0665V6.93317C26.6666 5.4397 26.6666 4.69296 26.3759 4.12253C26.1203 3.62076 25.7123 3.21282 25.2106 2.95715C24.6401 2.6665 23.8934 2.6665 22.3999 2.6665H11.7333C9.49304 2.6665 8.37294 2.6665 7.51729 3.10248C6.76464 3.48597 6.15272 4.09789 5.76923 4.85054C5.33325 5.70619 5.33325 6.82629 5.33325 9.0665V22.9332C5.33325 25.1734 5.33325 26.2935 5.76923 27.1491C6.15272 27.9018 6.76464 28.5137 7.51729 28.8972C8.37294 29.3332 9.49304 29.3332 11.7333 29.3332Z" stroke="#4864E1" stroke-width="3" stroke-linecap="round" stroke-linejoin="round"/>
</g>
</svg>
