<svg width="16" height="16" viewBox="0 0 16 16" fill="none" xmlns="http://www.w3.org/2000/svg">
<g id="camera-01">
<g id="Icon">
<path d="M1.33337 5.58449C1.33337 5.35094 1.33337 5.23417 1.34312 5.13582C1.43711 4.18719 2.18755 3.43674 3.13618 3.34275C3.23454 3.33301 3.35761 3.33301 3.60376 3.33301C3.69861 3.33301 3.74603 3.33301 3.7863 3.33057C4.30045 3.29943 4.75068 2.97493 4.9428 2.49701C4.95785 2.45958 4.97191 2.41739 5.00004 2.33301C5.02817 2.24863 5.04223 2.20644 5.05728 2.16901C5.24941 1.69109 5.69963 1.36658 6.21378 1.33545C6.25405 1.33301 6.29852 1.33301 6.38747 1.33301H9.61262C9.70156 1.33301 9.74603 1.33301 9.7863 1.33545C10.3004 1.36658 10.7507 1.69109 10.9428 2.16901C10.9579 2.20644 10.9719 2.24863 11 2.33301C11.0282 2.41739 11.0422 2.45958 11.0573 2.49701C11.2494 2.97493 11.6996 3.29943 12.2138 3.33057C12.254 3.33301 12.3015 3.33301 12.3963 3.33301C12.6425 3.33301 12.7655 3.33301 12.8639 3.34275C13.8125 3.43674 14.563 4.18719 14.657 5.13582C14.6667 5.23417 14.6667 5.35094 14.6667 5.58449V10.7997C14.6667 11.9198 14.6667 12.4798 14.4487 12.9077C14.257 13.284 13.951 13.5899 13.5747 13.7817C13.1469 13.9997 12.5868 13.9997 11.4667 13.9997H4.53337C3.41327 13.9997 2.85322 13.9997 2.42539 13.7817C2.04907 13.5899 1.74311 13.284 1.55136 12.9077C1.33337 12.4798 1.33337 11.9198 1.33337 10.7997V5.58449Z" stroke="#5A5A5C" stroke-width="2" stroke-linecap="round" stroke-linejoin="round"/>
<path d="M8.00004 10.9997C9.4728 10.9997 10.6667 9.80577 10.6667 8.33301C10.6667 6.86025 9.4728 5.66634 8.00004 5.66634C6.52728 5.66634 5.33337 6.86025 5.33337 8.33301C5.33337 9.80577 6.52728 10.9997 8.00004 10.9997Z" stroke="#5A5A5C" stroke-width="2" stroke-linecap="round" stroke-linejoin="round"/>
</g>
</g>
</svg>
