<svg width="32" height="32" viewBox="0 0 32 32" fill="none" xmlns="http://www.w3.org/2000/svg">
<g id="certificate-01">
<path id="Icon" d="M8.66667 26.667H6.66667C5.19391 26.667 4 25.4731 4 24.0003V5.33366C4 3.8609 5.19391 2.66699 6.66667 2.66699H25.3333C26.8061 2.66699 28 3.8609 28 5.33366V24.0003C28 25.4731 26.8061 26.667 25.3333 26.667H23.3333M16 25.3337C18.2091 25.3337 20 23.5428 20 21.3337C20 19.1245 18.2091 17.3337 16 17.3337C13.7909 17.3337 12 19.1245 12 21.3337C12 23.5428 13.7909 25.3337 16 25.3337ZM16 25.3337L16.0286 25.3334L11.7716 29.5904L8.00033 25.8192L12.0262 21.7933M16 25.3337L20.2571 29.5904L24.0283 25.8192L20.0024 21.7933M12 8.00033H20M9.33333 12.667H22.6667" stroke="#4864E1" stroke-width="3" stroke-linecap="round" stroke-linejoin="round"/>
</g>
</svg>
