<svg width="20" height="21" viewBox="0 0 20 21" fill="none" xmlns="http://www.w3.org/2000/svg">
<g id="edit-05">
<path id="Icon" d="M9.16602 3.8332H5.66602C4.26588 3.8332 3.56582 3.8332 3.03104 4.10568C2.56063 4.34536 2.17818 4.72782 1.9385 5.19822C1.66602 5.733 1.66602 6.43307 1.66602 7.8332V14.8332C1.66602 16.2333 1.66602 16.9334 1.9385 17.4682C2.17818 17.9386 2.56063 18.321 3.03104 18.5607C3.56582 18.8332 4.26588 18.8332 5.66602 18.8332H12.666C14.0661 18.8332 14.7662 18.8332 15.301 18.5607C15.7714 18.321 16.1538 17.9386 16.3935 17.4682C16.666 16.9334 16.666 16.2333 16.666 14.8332V11.3332M6.66599 13.8332H8.06145C8.4691 13.8332 8.67292 13.8332 8.86474 13.7871C9.0348 13.7463 9.19737 13.679 9.34649 13.5876C9.51468 13.4845 9.65881 13.3404 9.94706 13.0521L17.916 5.0832C18.6064 4.39284 18.6064 3.27355 17.916 2.5832C17.2257 1.89284 16.1064 1.89284 15.416 2.5832L7.44704 10.5521C7.15879 10.8404 7.01466 10.9845 6.91159 11.1527C6.82021 11.3018 6.75287 11.4644 6.71204 11.6345C6.66599 11.8263 6.66599 12.0301 6.66599 12.4378V13.8332Z" stroke="#5A5A5C" stroke-width="2" stroke-linecap="round" stroke-linejoin="round"/>
</g>
</svg>
