<svg width="160" height="80" viewBox="0 0 160 80" fill="none" xmlns="http://www.w3.org/2000/svg">
<path d="M13.3333 34.6667V33.3333M13.3333 40.6667V39.3333M13.3333 46.6667V45.3333M6.93329 29.3333H25.0666C26.5601 29.3333 27.3068 29.3333 27.8773 29.624C28.379 29.8796 28.787 30.2876 29.0426 30.7894C29.3333 31.3598 29.3333 32.1065 29.3333 33.6V35.3333C26.756 35.3333 24.6666 37.4227 24.6666 40C24.6666 42.5773 26.756 44.6667 29.3333 44.6667V46.4C29.3333 47.8935 29.3333 48.6402 29.0426 49.2106C28.787 49.7124 28.379 50.1203 27.8773 50.376C27.3068 50.6667 26.5601 50.6667 25.0666 50.6667H6.93329C5.43982 50.6667 4.69308 50.6667 4.12265 50.376C3.62089 50.1203 3.21294 49.7124 2.95728 49.2106C2.66663 48.6402 2.66663 47.8935 2.66663 46.4V44.6667C5.24395 44.6667 7.33329 42.5773 7.33329 40C7.33329 37.4227 5.24395 35.3333 2.66663 35.3333V33.6C2.66663 32.1065 2.66663 31.3598 2.95728 30.7894C3.21294 30.2876 3.62089 29.8796 4.12265 29.624C4.69308 29.3333 5.43982 29.3333 6.93329 29.3333Z" stroke="#F2F4F7" stroke-width="2" stroke-linecap="round" stroke-linejoin="round"/>
<path d="M73.3333 56.6667C86.22 56.6667 96.6667 46.22 96.6667 33.3333C96.6667 20.4467 86.22 10 73.3333 10C60.4467 10 50 20.4467 50 33.3333C50 46.22 60.4467 56.6667 73.3333 56.6667Z" stroke="#98A2B3" stroke-width="3" stroke-linecap="round" stroke-linejoin="round"/>
<path d="M90 50L110 70" stroke="#98A2B3" stroke-width="3" stroke-linecap="round" stroke-linejoin="round"/>
<path d="M84 22H62C61.4696 22 60.9609 22.2107 60.5858 22.5858C60.2107 22.9609 60 23.4696 60 24V43C60.0001 43.1704 60.0437 43.338 60.1268 43.4869C60.2099 43.6357 60.3296 43.7608 60.4746 43.8503C60.6197 43.9399 60.7852 43.9909 60.9554 43.9985C61.1257 44.0061 61.2951 43.97 61.4475 43.8937L65 42.1175L68.5525 43.8937C68.6914 43.9633 68.8446 43.9995 69 43.9995C69.1554 43.9995 69.3086 43.9633 69.4475 43.8937L73 42.1175L76.5525 43.8937C76.6914 43.9633 76.8446 43.9995 77 43.9995C77.1554 43.9995 77.3086 43.9633 77.4475 43.8937L81 42.1175L84.5525 43.8937C84.7049 43.97 84.8743 44.0061 85.0446 43.9985C85.2148 43.9909 85.3803 43.9399 85.5254 43.8503C85.6704 43.7608 85.7901 43.6357 85.8732 43.4869C85.9563 43.338 85.9999 43.1704 86 43V24C86 23.4696 85.7893 22.9609 85.4142 22.5858C85.0391 22.2107 84.5304 22 84 22ZM84 41.3825L81.4475 40.105C81.3086 40.0355 81.1554 39.9993 81 39.9993C80.8446 39.9993 80.6914 40.0355 80.5525 40.105L77 41.8825L73.4475 40.105C73.3086 40.0355 73.1554 39.9993 73 39.9993C72.8446 39.9993 72.6914 40.0355 72.5525 40.105L69 41.8825L65.4475 40.105C65.3086 40.0355 65.1554 39.9993 65 39.9993C64.8446 39.9993 64.6914 40.0355 64.5525 40.105L62 41.3825V24H84V41.3825ZM69.2925 34.2925L71.5863 32L69.2925 29.7075C69.1049 29.5199 68.9994 29.2654 68.9994 29C68.9994 28.7346 69.1049 28.4801 69.2925 28.2925C69.4801 28.1049 69.7346 27.9994 70 27.9994C70.2654 27.9994 70.5199 28.1049 70.7075 28.2925L73 30.5863L75.2925 28.2925C75.3854 28.1996 75.4957 28.1259 75.6171 28.0756C75.7385 28.0253 75.8686 27.9994 76 27.9994C76.1314 27.9994 76.2615 28.0253 76.3829 28.0756C76.5043 28.1259 76.6146 28.1996 76.7075 28.2925C76.8004 28.3854 76.8741 28.4957 76.9244 28.6171C76.9747 28.7385 77.0006 28.8686 77.0006 29C77.0006 29.1314 76.9747 29.2615 76.9244 29.3829C76.8741 29.5043 76.8004 29.6146 76.7075 29.7075L74.4137 32L76.7075 34.2925C76.8004 34.3854 76.8741 34.4957 76.9244 34.6171C76.9747 34.7385 77.0006 34.8686 77.0006 35C77.0006 35.1314 76.9747 35.2615 76.9244 35.3829C76.8741 35.5043 76.8004 35.6146 76.7075 35.7075C76.6146 35.8004 76.5043 35.8741 76.3829 35.9244C76.2615 35.9747 76.1314 36.0006 76 36.0006C75.8686 36.0006 75.7385 35.9747 75.6171 35.9244C75.4957 35.8741 75.3854 35.8004 75.2925 35.7075L73 33.4137L70.7075 35.7075C70.6146 35.8004 70.5043 35.8741 70.3829 35.9244C70.2615 35.9747 70.1314 36.0006 70 36.0006C69.8686 36.0006 69.7385 35.9747 69.6171 35.9244C69.4957 35.8741 69.3854 35.8004 69.2925 35.7075C69.1996 35.6146 69.1259 35.5043 69.0756 35.3829C69.0253 35.2615 68.9994 35.1314 68.9994 35C68.9994 34.8686 69.0253 34.7385 69.0756 34.6171C69.1259 34.4957 69.1996 34.3854 69.2925 34.2925Z" fill="#98A2B3"/>
<path d="M145.333 30.6667C145.333 32.1394 142.05 33.3333 138 33.3333C133.95 33.3333 130.667 32.1394 130.667 30.6667M145.333 30.6667C145.333 29.1939 142.05 28 138 28C133.95 28 130.667 29.1939 130.667 30.6667M145.333 30.6667V32.6667M130.667 30.6667V46.6667C130.667 48.1394 133.95 49.3333 138 49.3333M138 38.6667C137.775 38.6667 137.553 38.663 137.333 38.6558C133.596 38.5333 130.667 37.391 130.667 36M138 44C133.95 44 130.667 42.8061 130.667 41.3333M157.333 39.3333C157.333 40.8061 154.05 42 150 42C145.95 42 142.667 40.8061 142.667 39.3333M157.333 39.3333C157.333 37.8606 154.05 36.6667 150 36.6667C145.95 36.6667 142.667 37.8606 142.667 39.3333M157.333 39.3333V49.3333C157.333 50.8061 154.05 52 150 52C145.95 52 142.667 50.8061 142.667 49.3333V39.3333M157.333 44.3333C157.333 45.8061 154.05 47 150 47C145.95 47 142.667 45.8061 142.667 44.3333" stroke="#F2F4F7" stroke-width="2" stroke-linecap="round" stroke-linejoin="round"/>
</svg>
