<svg width="18" height="18" viewBox="0 0 18 18" fill="none" xmlns="http://www.w3.org/2000/svg">
<g clip-path="url(#clip0_1905_2114)">
<path d="M11.25 1.84335C10.5397 1.62027 9.7839 1.5 9 1.5C4.85786 1.5 1.5 4.85786 1.5 9C1.5 13.1421 4.85786 16.5 9 16.5C13.1421 16.5 16.5 13.1421 16.5 9C16.5 7.71351 16.1761 6.50266 15.6054 5.44458M12.75 4.3125H12.7538M7.87504 16.4162L7.87512 14.7637C7.87513 14.6742 7.90715 14.5876 7.9654 14.5197L9.82973 12.3446C9.98295 12.1658 9.93547 11.8917 9.73106 11.7749L7.5889 10.5508C7.5307 10.5175 7.48248 10.4693 7.44925 10.4111L6.05284 7.96397C5.98017 7.83661 5.83993 7.7633 5.69387 7.77631L1.54814 8.14556M15.75 4.5C15.75 6.15685 14.25 7.5 12.75 9C11.25 7.5 9.75 6.15685 9.75 4.5C9.75 2.84315 11.0931 1.5 12.75 1.5C14.4069 1.5 15.75 2.84315 15.75 4.5ZM12.9375 4.3125C12.9375 4.41605 12.8536 4.5 12.75 4.5C12.6464 4.5 12.5625 4.41605 12.5625 4.3125C12.5625 4.20895 12.6464 4.125 12.75 4.125C12.8536 4.125 12.9375 4.20895 12.9375 4.3125Z" stroke="#5A5A5C" stroke-width="2" stroke-linecap="round" stroke-linejoin="round"/>
</g>
<defs>
<clipPath id="clip0_1905_2114">
<rect width="18" height="18" fill="white"/>
</clipPath>
</defs>
</svg>
