<svg width="20" height="20" viewBox="0 0 20 20" fill="none" xmlns="http://www.w3.org/2000/svg">
<g id="globe-01" clip-path="url(#clip0_2036_6246)">
<path id="Icon" d="M1.66669 10.0003H18.3334M1.66669 10.0003C1.66669 14.6027 5.39765 18.3337 10 18.3337M1.66669 10.0003C1.66669 5.39795 5.39765 1.66699 10 1.66699M18.3334 10.0003C18.3334 14.6027 14.6024 18.3337 10 18.3337M18.3334 10.0003C18.3334 5.39795 14.6024 1.66699 10 1.66699M10 1.66699C12.0844 3.94895 13.269 6.91035 13.3334 10.0003C13.269 13.0903 12.0844 16.0517 10 18.3337M10 1.66699C7.91562 3.94895 6.73106 6.91035 6.66669 10.0003C6.73106 13.0903 7.91562 16.0517 10 18.3337" stroke="#444444" stroke-width="2" stroke-linecap="round" stroke-linejoin="round"/>
</g>
<defs>
<clipPath id="clip0_2036_6246">
<rect width="20" height="20" fill="white"/>
</clipPath>
</defs>
</svg>
