<svg width="20" height="20" viewBox="0 0 20 20" fill="none" xmlns="http://www.w3.org/2000/svg">
<g id="Navigation / Map_Pin">
<path id="Vector" d="M9.9987 9.16634C10.9192 9.16634 11.6654 8.42015 11.6654 7.49967C11.6654 6.5792 10.9192 5.83301 9.9987 5.83301C9.07822 5.83301 8.33203 6.5792 8.33203 7.49967C8.33203 8.42015 9.07822 9.16634 9.9987 9.16634Z" stroke="#333335" stroke-width="2" stroke-linecap="round" stroke-linejoin="round"/>
<path id="Vector_2" d="M10.0013 17.5C10.0013 17.5 15.8346 13.4615 15.8346 8.26923C15.8346 6.73914 15.2201 5.27171 14.1261 4.18977C13.0321 3.10783 11.5484 2.5 10.0013 2.5C8.45421 2.5 6.97047 3.10783 5.87651 4.18977C4.78255 5.27171 4.16797 6.73914 4.16797 8.26923C4.16797 13.4615 10.0013 17.5 10.0013 17.5Z" stroke="#333335" stroke-width="2" stroke-linecap="round" stroke-linejoin="round"/>
</g>
</svg>
