<svg width="20" height="20" viewBox="0 0 20 20" fill="none" xmlns="http://www.w3.org/2000/svg">
<g id="users-check">
<path id="Icon" d="M13.3337 15L15.0003 16.6667L18.3337 13.3333M10.0003 12.5H6.66699C5.11385 12.5 4.33728 12.5 3.72471 12.7537C2.90795 13.092 2.25904 13.741 1.92073 14.5577C1.66699 15.1703 1.66699 15.9469 1.66699 17.5M12.917 2.7423C14.1386 3.23679 15.0003 4.43443 15.0003 5.83333C15.0003 7.23224 14.1386 8.42988 12.917 8.92437M11.2503 5.83333C11.2503 7.67428 9.75794 9.16667 7.91699 9.16667C6.07604 9.16667 4.58366 7.67428 4.58366 5.83333C4.58366 3.99238 6.07604 2.5 7.91699 2.5C9.75794 2.5 11.2503 3.99238 11.2503 5.83333Z" stroke="#4864E1" stroke-width="2" stroke-linecap="round" stroke-linejoin="round"/>
</g>
</svg>
