<svg width="21" height="21" viewBox="0 0 21 21" fill="none" xmlns="http://www.w3.org/2000/svg">
<g id="user-right-01">
<path id="Icon" d="M16.3334 18L18.8334 15.5M18.8334 15.5L16.3334 13M18.8334 15.5H13.8334M10.5001 13.4167H6.75009C5.58711 13.4167 5.00563 13.4167 4.53246 13.5602C3.46713 13.8834 2.63345 14.717 2.31028 15.7824C2.16675 16.2555 2.16675 16.837 2.16675 18M12.5834 6.75C12.5834 8.82107 10.9045 10.5 8.83342 10.5C6.76235 10.5 5.08341 8.82107 5.08341 6.75C5.08341 4.67893 6.76235 3 8.83342 3C10.9045 3 12.5834 4.67893 12.5834 6.75Z" stroke="white" stroke-width="2" stroke-linecap="round" stroke-linejoin="round"/>
</g>
</svg>
